<mxfile host="app.diagrams.net" modified="2023-09-16T07:49:15.417Z" agent="Mozilla/5.0 (Windows NT 10.0; Win64; x64) AppleWebKit/537.36 (KHTML, like Gecko) Chrome/116.0.0.0 Safari/537.36 Edg/116.0.1938.81" version="21.7.5" etag="xM8v_e_fVA7ClWdFHFC9" type="github">
  <diagram name="第 1 页" id="JmVNppqvXEMfllT_z2xZ">
    <mxGraphModel>
      <root>
        <mxCell id="0" />
        <mxCell id="1" parent="0" />
      </root>
    </mxGraphModel>
  </diagram>
</mxfile>
